<mxfile host="Electron" agent="Mozilla/5.0 (X11; Linux x86_64) AppleWebKit/537.36 (KHTML, like Gecko) draw.io/28.0.6 Chrome/138.0.7204.100 Electron/37.2.3 Safari/537.36" version="28.0.6">
  <diagram name="Page-1" id="6AssfcruLWCRRwNgs943">
    <mxGraphModel dx="1426" dy="875" grid="1" gridSize="10" guides="1" tooltips="1" connect="1" arrows="1" fold="1" page="1" pageScale="1" pageWidth="827" pageHeight="1169" math="0" shadow="0">
      <root>
        <mxCell id="0" />
        <mxCell id="1" parent="0" />
        <mxCell id="OecEfJYzLQX1Bd3YdA2C-1" value="IsActiveMixin" style="swimlane;fontStyle=0;childLayout=stackLayout;horizontal=1;startSize=26;horizontalStack=0;resizeParent=1;resizeParentMax=0;resizeLast=0;collapsible=1;marginBottom=0;html=1;fillColor=#60a917;fontColor=#ffffff;strokeColor=#2D7600;" parent="1" vertex="1">
          <mxGeometry x="200" y="440" width="140" height="182" as="geometry" />
        </mxCell>
        <mxCell id="OecEfJYzLQX1Bd3YdA2C-2" value="created stamp" style="text;strokeColor=none;fillColor=none;align=left;verticalAlign=top;spacingLeft=4;spacingRight=4;overflow=hidden;rotatable=0;points=[[0,0.5],[1,0.5]];portConstraint=eastwest;whiteSpace=wrap;html=1;" parent="OecEfJYzLQX1Bd3YdA2C-1" vertex="1">
          <mxGeometry y="26" width="140" height="26" as="geometry" />
        </mxCell>
        <mxCell id="OecEfJYzLQX1Bd3YdA2C-3" value="created by" style="text;strokeColor=none;fillColor=none;align=left;verticalAlign=top;spacingLeft=4;spacingRight=4;overflow=hidden;rotatable=0;points=[[0,0.5],[1,0.5]];portConstraint=eastwest;whiteSpace=wrap;html=1;" parent="OecEfJYzLQX1Bd3YdA2C-1" vertex="1">
          <mxGeometry y="52" width="140" height="26" as="geometry" />
        </mxCell>
        <mxCell id="OecEfJYzLQX1Bd3YdA2C-4" value="modified stamp" style="text;strokeColor=none;fillColor=none;align=left;verticalAlign=top;spacingLeft=4;spacingRight=4;overflow=hidden;rotatable=0;points=[[0,0.5],[1,0.5]];portConstraint=eastwest;whiteSpace=wrap;html=1;" parent="OecEfJYzLQX1Bd3YdA2C-1" vertex="1">
          <mxGeometry y="78" width="140" height="26" as="geometry" />
        </mxCell>
        <mxCell id="OecEfJYzLQX1Bd3YdA2C-5" value="modified by&lt;table&gt;&lt;tbody&gt;&lt;tr&gt;&lt;td&gt;&lt;br&gt;&lt;/td&gt;&lt;td&gt;&lt;br&gt;&lt;/td&gt;&lt;td&gt;&lt;br&gt;&lt;/td&gt;&lt;td&gt;&lt;br&gt;&lt;/td&gt;&lt;/tr&gt;&lt;tr&gt;&lt;td&gt;&lt;br&gt;&lt;/td&gt;&lt;td&gt;&lt;br&gt;&lt;/td&gt;&lt;td&gt;&lt;br&gt;&lt;/td&gt;&lt;td&gt;&lt;br&gt;&lt;/td&gt;&lt;/tr&gt;&lt;tr&gt;&lt;td&gt;&lt;br&gt;&lt;/td&gt;&lt;td&gt;&lt;br&gt;&lt;/td&gt;&lt;td&gt;&lt;br&gt;&lt;/td&gt;&lt;td&gt;&lt;br&gt;&lt;/td&gt;&lt;/tr&gt;&lt;/tbody&gt;&lt;/table&gt;" style="text;strokeColor=none;fillColor=none;align=left;verticalAlign=top;spacingLeft=4;spacingRight=4;overflow=hidden;rotatable=0;points=[[0,0.5],[1,0.5]];portConstraint=eastwest;whiteSpace=wrap;html=1;" parent="OecEfJYzLQX1Bd3YdA2C-1" vertex="1">
          <mxGeometry y="104" width="140" height="26" as="geometry" />
        </mxCell>
        <mxCell id="OecEfJYzLQX1Bd3YdA2C-6" value="archived&lt;span style=&quot;background-color: transparent; color: light-dark(rgb(0, 0, 0), rgb(255, 255, 255));&quot;&gt;&amp;nbsp;stamp&lt;/span&gt;" style="text;strokeColor=none;fillColor=none;align=left;verticalAlign=top;spacingLeft=4;spacingRight=4;overflow=hidden;rotatable=0;points=[[0,0.5],[1,0.5]];portConstraint=eastwest;whiteSpace=wrap;html=1;" parent="OecEfJYzLQX1Bd3YdA2C-1" vertex="1">
          <mxGeometry y="130" width="140" height="26" as="geometry" />
        </mxCell>
        <mxCell id="OecEfJYzLQX1Bd3YdA2C-7" value="archived by" style="text;strokeColor=none;fillColor=none;align=left;verticalAlign=top;spacingLeft=4;spacingRight=4;overflow=hidden;rotatable=0;points=[[0,0.5],[1,0.5]];portConstraint=eastwest;whiteSpace=wrap;html=1;" parent="OecEfJYzLQX1Bd3YdA2C-1" vertex="1">
          <mxGeometry y="156" width="140" height="26" as="geometry" />
        </mxCell>
        <mxCell id="OecEfJYzLQX1Bd3YdA2C-8" value="UuidIDMixin" style="swimlane;fontStyle=0;childLayout=stackLayout;horizontal=1;startSize=26;fillColor=#60a917;horizontalStack=0;resizeParent=1;resizeParentMax=0;resizeLast=0;collapsible=1;marginBottom=0;html=1;fontColor=#ffffff;strokeColor=#2D7600;" parent="1" vertex="1">
          <mxGeometry x="480" y="440" width="140" height="52" as="geometry" />
        </mxCell>
        <mxCell id="OecEfJYzLQX1Bd3YdA2C-9" value="id uuid" style="text;strokeColor=none;fillColor=none;align=left;verticalAlign=top;spacingLeft=4;spacingRight=4;overflow=hidden;rotatable=0;points=[[0,0.5],[1,0.5]];portConstraint=eastwest;whiteSpace=wrap;html=1;" parent="OecEfJYzLQX1Bd3YdA2C-8" vertex="1">
          <mxGeometry y="26" width="140" height="26" as="geometry" />
        </mxCell>
        <mxCell id="OecEfJYzLQX1Bd3YdA2C-10" value="User" style="swimlane;fontStyle=0;childLayout=stackLayout;horizontal=1;startSize=26;fillColor=#1ba1e2;horizontalStack=0;resizeParent=1;resizeParentMax=0;resizeLast=0;collapsible=1;marginBottom=0;html=1;fontColor=#ffffff;strokeColor=#006EAF;" parent="1" vertex="1">
          <mxGeometry x="190" y="700" width="140" height="234" as="geometry" />
        </mxCell>
        <mxCell id="OecEfJYzLQX1Bd3YdA2C-11" value="email" style="text;strokeColor=none;fillColor=none;align=left;verticalAlign=top;spacingLeft=4;spacingRight=4;overflow=hidden;rotatable=0;points=[[0,0.5],[1,0.5]];portConstraint=eastwest;whiteSpace=wrap;html=1;" parent="OecEfJYzLQX1Bd3YdA2C-10" vertex="1">
          <mxGeometry y="26" width="140" height="26" as="geometry" />
        </mxCell>
        <mxCell id="OecEfJYzLQX1Bd3YdA2C-12" value="first name" style="text;strokeColor=none;fillColor=none;align=left;verticalAlign=top;spacingLeft=4;spacingRight=4;overflow=hidden;rotatable=0;points=[[0,0.5],[1,0.5]];portConstraint=eastwest;whiteSpace=wrap;html=1;" parent="OecEfJYzLQX1Bd3YdA2C-10" vertex="1">
          <mxGeometry y="52" width="140" height="26" as="geometry" />
        </mxCell>
        <mxCell id="OecEfJYzLQX1Bd3YdA2C-13" value="last name" style="text;strokeColor=none;fillColor=none;align=left;verticalAlign=top;spacingLeft=4;spacingRight=4;overflow=hidden;rotatable=0;points=[[0,0.5],[1,0.5]];portConstraint=eastwest;whiteSpace=wrap;html=1;" parent="OecEfJYzLQX1Bd3YdA2C-10" vertex="1">
          <mxGeometry y="78" width="140" height="26" as="geometry" />
        </mxCell>
        <mxCell id="OecEfJYzLQX1Bd3YdA2C-14" value="last_login" style="text;strokeColor=none;fillColor=none;align=left;verticalAlign=top;spacingLeft=4;spacingRight=4;overflow=hidden;rotatable=0;points=[[0,0.5],[1,0.5]];portConstraint=eastwest;whiteSpace=wrap;html=1;" parent="OecEfJYzLQX1Bd3YdA2C-10" vertex="1">
          <mxGeometry y="104" width="140" height="26" as="geometry" />
        </mxCell>
        <mxCell id="OecEfJYzLQX1Bd3YdA2C-15" value="is_active" style="text;strokeColor=none;fillColor=none;align=left;verticalAlign=top;spacingLeft=4;spacingRight=4;overflow=hidden;rotatable=0;points=[[0,0.5],[1,0.5]];portConstraint=eastwest;whiteSpace=wrap;html=1;" parent="OecEfJYzLQX1Bd3YdA2C-10" vertex="1">
          <mxGeometry y="130" width="140" height="26" as="geometry" />
        </mxCell>
        <mxCell id="OecEfJYzLQX1Bd3YdA2C-16" value="is_staff" style="text;strokeColor=none;fillColor=none;align=left;verticalAlign=top;spacingLeft=4;spacingRight=4;overflow=hidden;rotatable=0;points=[[0,0.5],[1,0.5]];portConstraint=eastwest;whiteSpace=wrap;html=1;" parent="OecEfJYzLQX1Bd3YdA2C-10" vertex="1">
          <mxGeometry y="156" width="140" height="26" as="geometry" />
        </mxCell>
        <mxCell id="OecEfJYzLQX1Bd3YdA2C-17" value="is_superuser" style="text;strokeColor=none;fillColor=none;align=left;verticalAlign=top;spacingLeft=4;spacingRight=4;overflow=hidden;rotatable=0;points=[[0,0.5],[1,0.5]];portConstraint=eastwest;whiteSpace=wrap;html=1;" parent="OecEfJYzLQX1Bd3YdA2C-10" vertex="1">
          <mxGeometry y="182" width="140" height="26" as="geometry" />
        </mxCell>
        <mxCell id="OecEfJYzLQX1Bd3YdA2C-18" value="role" style="text;strokeColor=none;fillColor=none;align=left;verticalAlign=top;spacingLeft=4;spacingRight=4;overflow=hidden;rotatable=0;points=[[0,0.5],[1,0.5]];portConstraint=eastwest;whiteSpace=wrap;html=1;" parent="OecEfJYzLQX1Bd3YdA2C-10" vertex="1">
          <mxGeometry y="208" width="140" height="26" as="geometry" />
        </mxCell>
        <mxCell id="OecEfJYzLQX1Bd3YdA2C-19" value="UserRole" style="swimlane;fontStyle=0;childLayout=stackLayout;horizontal=1;startSize=26;fillColor=#1ba1e2;horizontalStack=0;resizeParent=1;resizeParentMax=0;resizeLast=0;collapsible=1;marginBottom=0;html=1;fontColor=#ffffff;strokeColor=#006EAF;" parent="1" vertex="1">
          <mxGeometry x="190" y="990" width="140" height="78" as="geometry" />
        </mxCell>
        <mxCell id="OecEfJYzLQX1Bd3YdA2C-20" value="slug" style="text;strokeColor=none;fillColor=none;align=left;verticalAlign=top;spacingLeft=4;spacingRight=4;overflow=hidden;rotatable=0;points=[[0,0.5],[1,0.5]];portConstraint=eastwest;whiteSpace=wrap;html=1;" parent="OecEfJYzLQX1Bd3YdA2C-19" vertex="1">
          <mxGeometry y="26" width="140" height="26" as="geometry" />
        </mxCell>
        <mxCell id="OecEfJYzLQX1Bd3YdA2C-21" value="name" style="text;strokeColor=none;fillColor=none;align=left;verticalAlign=top;spacingLeft=4;spacingRight=4;overflow=hidden;rotatable=0;points=[[0,0.5],[1,0.5]];portConstraint=eastwest;whiteSpace=wrap;html=1;" parent="OecEfJYzLQX1Bd3YdA2C-19" vertex="1">
          <mxGeometry y="52" width="140" height="26" as="geometry" />
        </mxCell>
        <mxCell id="OecEfJYzLQX1Bd3YdA2C-22" value="Relation" style="endArrow=open;html=1;endSize=12;startArrow=diamondThin;startSize=14;startFill=0;edgeStyle=orthogonalEdgeStyle;rounded=0;entryX=0;entryY=0.25;entryDx=0;entryDy=0;" parent="1" target="OecEfJYzLQX1Bd3YdA2C-19" edge="1">
          <mxGeometry relative="1" as="geometry">
            <mxPoint x="190" y="921" as="sourcePoint" />
            <mxPoint x="600" y="758.5" as="targetPoint" />
            <Array as="points">
              <mxPoint x="120" y="921" />
              <mxPoint x="120" y="1010" />
            </Array>
          </mxGeometry>
        </mxCell>
        <mxCell id="OecEfJYzLQX1Bd3YdA2C-23" value="0..1" style="edgeLabel;resizable=0;html=1;align=left;verticalAlign=top;" parent="OecEfJYzLQX1Bd3YdA2C-22" connectable="0" vertex="1">
          <mxGeometry x="-1" relative="1" as="geometry" />
        </mxCell>
        <mxCell id="OecEfJYzLQX1Bd3YdA2C-24" value="1" style="edgeLabel;resizable=0;html=1;align=right;verticalAlign=top;" parent="OecEfJYzLQX1Bd3YdA2C-22" connectable="0" vertex="1">
          <mxGeometry x="1" relative="1" as="geometry" />
        </mxCell>
        <mxCell id="OecEfJYzLQX1Bd3YdA2C-25" value="Relation" style="endArrow=open;html=1;endSize=12;startArrow=diamondThin;startSize=14;startFill=0;edgeStyle=orthogonalEdgeStyle;rounded=0;exitX=0;exitY=0.5;exitDx=0;exitDy=0;entryX=0;entryY=0.064;entryDx=0;entryDy=0;entryPerimeter=0;" parent="1" source="OecEfJYzLQX1Bd3YdA2C-3" target="OecEfJYzLQX1Bd3YdA2C-10" edge="1">
          <mxGeometry relative="1" as="geometry">
            <mxPoint x="280" y="770" as="sourcePoint" />
            <mxPoint x="440" y="770" as="targetPoint" />
            <Array as="points">
              <mxPoint x="150" y="505" />
              <mxPoint x="150" y="715" />
            </Array>
          </mxGeometry>
        </mxCell>
        <mxCell id="OecEfJYzLQX1Bd3YdA2C-26" value="0..1" style="edgeLabel;resizable=0;html=1;align=left;verticalAlign=top;" parent="OecEfJYzLQX1Bd3YdA2C-25" connectable="0" vertex="1">
          <mxGeometry x="-1" relative="1" as="geometry" />
        </mxCell>
        <mxCell id="OecEfJYzLQX1Bd3YdA2C-27" value="1" style="edgeLabel;resizable=0;html=1;align=right;verticalAlign=top;" parent="OecEfJYzLQX1Bd3YdA2C-25" connectable="0" vertex="1">
          <mxGeometry x="1" relative="1" as="geometry" />
        </mxCell>
        <mxCell id="OecEfJYzLQX1Bd3YdA2C-28" value="Relation" style="endArrow=open;html=1;endSize=12;startArrow=diamondThin;startSize=14;startFill=0;edgeStyle=orthogonalEdgeStyle;rounded=0;strokeColor=default;align=center;verticalAlign=middle;fontFamily=Helvetica;fontSize=11;fontColor=default;labelBackgroundColor=default;exitX=0;exitY=0.5;exitDx=0;exitDy=0;" parent="1" source="OecEfJYzLQX1Bd3YdA2C-5" target="OecEfJYzLQX1Bd3YdA2C-10" edge="1">
          <mxGeometry relative="1" as="geometry">
            <mxPoint x="280" y="770" as="sourcePoint" />
            <mxPoint x="440" y="770" as="targetPoint" />
            <Array as="points">
              <mxPoint x="170" y="557" />
              <mxPoint x="170" y="670" />
              <mxPoint x="300" y="670" />
            </Array>
          </mxGeometry>
        </mxCell>
        <mxCell id="OecEfJYzLQX1Bd3YdA2C-29" value="0..1" style="edgeLabel;resizable=0;html=1;align=left;verticalAlign=top;fontFamily=Helvetica;fontSize=11;fontColor=default;labelBackgroundColor=default;" parent="OecEfJYzLQX1Bd3YdA2C-28" connectable="0" vertex="1">
          <mxGeometry x="-1" relative="1" as="geometry" />
        </mxCell>
        <mxCell id="OecEfJYzLQX1Bd3YdA2C-30" value="1" style="edgeLabel;resizable=0;html=1;align=right;verticalAlign=top;fontFamily=Helvetica;fontSize=11;fontColor=default;labelBackgroundColor=default;" parent="OecEfJYzLQX1Bd3YdA2C-28" connectable="0" vertex="1">
          <mxGeometry x="1" relative="1" as="geometry" />
        </mxCell>
        <mxCell id="OecEfJYzLQX1Bd3YdA2C-31" value="Relation" style="endArrow=open;html=1;endSize=12;startArrow=diamondThin;startSize=14;startFill=0;edgeStyle=orthogonalEdgeStyle;rounded=0;strokeColor=default;align=center;verticalAlign=middle;fontFamily=Helvetica;fontSize=11;fontColor=default;labelBackgroundColor=default;exitX=0;exitY=0.5;exitDx=0;exitDy=0;" parent="1" source="OecEfJYzLQX1Bd3YdA2C-7" edge="1">
          <mxGeometry relative="1" as="geometry">
            <mxPoint x="400" y="650" as="sourcePoint" />
            <mxPoint x="310" y="700" as="targetPoint" />
            <Array as="points">
              <mxPoint x="190" y="609" />
              <mxPoint x="190" y="650" />
              <mxPoint x="310" y="650" />
            </Array>
          </mxGeometry>
        </mxCell>
        <mxCell id="OecEfJYzLQX1Bd3YdA2C-32" value="0..1" style="edgeLabel;resizable=0;html=1;align=left;verticalAlign=top;fontFamily=Helvetica;fontSize=11;fontColor=default;labelBackgroundColor=default;" parent="OecEfJYzLQX1Bd3YdA2C-31" connectable="0" vertex="1">
          <mxGeometry x="-1" relative="1" as="geometry" />
        </mxCell>
        <mxCell id="OecEfJYzLQX1Bd3YdA2C-33" value="1" style="edgeLabel;resizable=0;html=1;align=right;verticalAlign=top;fontFamily=Helvetica;fontSize=11;fontColor=default;labelBackgroundColor=default;" parent="OecEfJYzLQX1Bd3YdA2C-31" connectable="0" vertex="1">
          <mxGeometry x="1" relative="1" as="geometry" />
        </mxCell>
        <mxCell id="OecEfJYzLQX1Bd3YdA2C-34" value="Clinic" style="swimlane;fontStyle=0;childLayout=stackLayout;horizontal=1;startSize=26;fillColor=#fa6800;horizontalStack=0;resizeParent=1;resizeParentMax=0;resizeLast=0;collapsible=1;marginBottom=0;html=1;fontColor=#000000;strokeColor=#C73500;" parent="1" vertex="1">
          <mxGeometry x="700" y="700" width="140" height="130" as="geometry" />
        </mxCell>
        <mxCell id="OecEfJYzLQX1Bd3YdA2C-35" value="name" style="text;strokeColor=none;fillColor=none;align=left;verticalAlign=top;spacingLeft=4;spacingRight=4;overflow=hidden;rotatable=0;points=[[0,0.5],[1,0.5]];portConstraint=eastwest;whiteSpace=wrap;html=1;" parent="OecEfJYzLQX1Bd3YdA2C-34" vertex="1">
          <mxGeometry y="26" width="140" height="26" as="geometry" />
        </mxCell>
        <mxCell id="OecEfJYzLQX1Bd3YdA2C-36" value="address" style="text;strokeColor=none;fillColor=none;align=left;verticalAlign=top;spacingLeft=4;spacingRight=4;overflow=hidden;rotatable=0;points=[[0,0.5],[1,0.5]];portConstraint=eastwest;whiteSpace=wrap;html=1;" parent="OecEfJYzLQX1Bd3YdA2C-34" vertex="1">
          <mxGeometry y="52" width="140" height="26" as="geometry" />
        </mxCell>
        <mxCell id="OecEfJYzLQX1Bd3YdA2C-37" value="timezone" style="text;strokeColor=none;fillColor=none;align=left;verticalAlign=top;spacingLeft=4;spacingRight=4;overflow=hidden;rotatable=0;points=[[0,0.5],[1,0.5]];portConstraint=eastwest;whiteSpace=wrap;html=1;" parent="OecEfJYzLQX1Bd3YdA2C-34" vertex="1">
          <mxGeometry y="78" width="140" height="26" as="geometry" />
        </mxCell>
        <mxCell id="OecEfJYzLQX1Bd3YdA2C-38" value="owner" style="text;strokeColor=none;fillColor=none;align=left;verticalAlign=top;spacingLeft=4;spacingRight=4;overflow=hidden;rotatable=0;points=[[0,0.5],[1,0.5]];portConstraint=eastwest;whiteSpace=wrap;html=1;" parent="OecEfJYzLQX1Bd3YdA2C-34" vertex="1">
          <mxGeometry y="104" width="140" height="26" as="geometry" />
        </mxCell>
        <mxCell id="OecEfJYzLQX1Bd3YdA2C-40" value="Employee" style="swimlane;fontStyle=0;childLayout=stackLayout;horizontal=1;startSize=26;fillColor=#fa6800;horizontalStack=0;resizeParent=1;resizeParentMax=0;resizeLast=0;collapsible=1;marginBottom=0;html=1;fontColor=#000000;strokeColor=#C73500;" parent="1" vertex="1">
          <mxGeometry x="440" y="700" width="140" height="364" as="geometry" />
        </mxCell>
        <mxCell id="OecEfJYzLQX1Bd3YdA2C-41" value="first_name" style="text;strokeColor=none;fillColor=none;align=left;verticalAlign=top;spacingLeft=4;spacingRight=4;overflow=hidden;rotatable=0;points=[[0,0.5],[1,0.5]];portConstraint=eastwest;whiteSpace=wrap;html=1;" parent="OecEfJYzLQX1Bd3YdA2C-40" vertex="1">
          <mxGeometry y="26" width="140" height="26" as="geometry" />
        </mxCell>
        <mxCell id="OecEfJYzLQX1Bd3YdA2C-42" value="last_name" style="text;strokeColor=none;fillColor=none;align=left;verticalAlign=top;spacingLeft=4;spacingRight=4;overflow=hidden;rotatable=0;points=[[0,0.5],[1,0.5]];portConstraint=eastwest;whiteSpace=wrap;html=1;" parent="OecEfJYzLQX1Bd3YdA2C-40" vertex="1">
          <mxGeometry y="52" width="140" height="26" as="geometry" />
        </mxCell>
        <mxCell id="OecEfJYzLQX1Bd3YdA2C-43" value="email" style="text;strokeColor=none;fillColor=none;align=left;verticalAlign=top;spacingLeft=4;spacingRight=4;overflow=hidden;rotatable=0;points=[[0,0.5],[1,0.5]];portConstraint=eastwest;whiteSpace=wrap;html=1;" parent="OecEfJYzLQX1Bd3YdA2C-40" vertex="1">
          <mxGeometry y="78" width="140" height="26" as="geometry" />
        </mxCell>
        <mxCell id="Mj6mIItFze49XFK4zkgr-41" value="phone" style="text;strokeColor=none;fillColor=none;align=left;verticalAlign=top;spacingLeft=4;spacingRight=4;overflow=hidden;rotatable=0;points=[[0,0.5],[1,0.5]];portConstraint=eastwest;whiteSpace=wrap;html=1;" vertex="1" parent="OecEfJYzLQX1Bd3YdA2C-40">
          <mxGeometry y="104" width="140" height="26" as="geometry" />
        </mxCell>
        <mxCell id="Mj6mIItFze49XFK4zkgr-39" value="birthday" style="text;strokeColor=none;fillColor=none;align=left;verticalAlign=top;spacingLeft=4;spacingRight=4;overflow=hidden;rotatable=0;points=[[0,0.5],[1,0.5]];portConstraint=eastwest;whiteSpace=wrap;html=1;" vertex="1" parent="OecEfJYzLQX1Bd3YdA2C-40">
          <mxGeometry y="130" width="140" height="26" as="geometry" />
        </mxCell>
        <mxCell id="Mj6mIItFze49XFK4zkgr-40" value="sex" style="text;strokeColor=none;fillColor=none;align=left;verticalAlign=top;spacingLeft=4;spacingRight=4;overflow=hidden;rotatable=0;points=[[0,0.5],[1,0.5]];portConstraint=eastwest;whiteSpace=wrap;html=1;" vertex="1" parent="OecEfJYzLQX1Bd3YdA2C-40">
          <mxGeometry y="156" width="140" height="26" as="geometry" />
        </mxCell>
        <mxCell id="Mj6mIItFze49XFK4zkgr-42" value="language" style="text;strokeColor=none;fillColor=none;align=left;verticalAlign=top;spacingLeft=4;spacingRight=4;overflow=hidden;rotatable=0;points=[[0,0.5],[1,0.5]];portConstraint=eastwest;whiteSpace=wrap;html=1;" vertex="1" parent="OecEfJYzLQX1Bd3YdA2C-40">
          <mxGeometry y="182" width="140" height="26" as="geometry" />
        </mxCell>
        <mxCell id="Mj6mIItFze49XFK4zkgr-44" value="timezone" style="text;strokeColor=none;fillColor=none;align=left;verticalAlign=top;spacingLeft=4;spacingRight=4;overflow=hidden;rotatable=0;points=[[0,0.5],[1,0.5]];portConstraint=eastwest;whiteSpace=wrap;html=1;" vertex="1" parent="OecEfJYzLQX1Bd3YdA2C-40">
          <mxGeometry y="208" width="140" height="26" as="geometry" />
        </mxCell>
        <mxCell id="OecEfJYzLQX1Bd3YdA2C-44" value="clinic" style="text;strokeColor=none;fillColor=none;align=left;verticalAlign=top;spacingLeft=4;spacingRight=4;overflow=hidden;rotatable=0;points=[[0,0.5],[1,0.5]];portConstraint=eastwest;whiteSpace=wrap;html=1;" parent="OecEfJYzLQX1Bd3YdA2C-40" vertex="1">
          <mxGeometry y="234" width="140" height="26" as="geometry" />
        </mxCell>
        <mxCell id="Mj6mIItFze49XFK4zkgr-29" value="color" style="text;strokeColor=none;fillColor=none;align=left;verticalAlign=top;spacingLeft=4;spacingRight=4;overflow=hidden;rotatable=0;points=[[0,0.5],[1,0.5]];portConstraint=eastwest;whiteSpace=wrap;html=1;" vertex="1" parent="OecEfJYzLQX1Bd3YdA2C-40">
          <mxGeometry y="260" width="140" height="26" as="geometry" />
        </mxCell>
        <mxCell id="OecEfJYzLQX1Bd3YdA2C-45" value="user" style="text;strokeColor=none;fillColor=none;align=left;verticalAlign=top;spacingLeft=4;spacingRight=4;overflow=hidden;rotatable=0;points=[[0,0.5],[1,0.5]];portConstraint=eastwest;whiteSpace=wrap;html=1;" parent="OecEfJYzLQX1Bd3YdA2C-40" vertex="1">
          <mxGeometry y="286" width="140" height="26" as="geometry" />
        </mxCell>
        <mxCell id="OecEfJYzLQX1Bd3YdA2C-81" value="roles" style="text;strokeColor=none;fillColor=none;align=left;verticalAlign=top;spacingLeft=4;spacingRight=4;overflow=hidden;rotatable=0;points=[[0,0.5],[1,0.5]];portConstraint=eastwest;whiteSpace=wrap;html=1;" parent="OecEfJYzLQX1Bd3YdA2C-40" vertex="1">
          <mxGeometry y="312" width="140" height="26" as="geometry" />
        </mxCell>
        <mxCell id="Mj6mIItFze49XFK4zkgr-25" value="branches" style="text;strokeColor=none;fillColor=none;align=left;verticalAlign=top;spacingLeft=4;spacingRight=4;overflow=hidden;rotatable=0;points=[[0,0.5],[1,0.5]];portConstraint=eastwest;whiteSpace=wrap;html=1;" vertex="1" parent="OecEfJYzLQX1Bd3YdA2C-40">
          <mxGeometry y="338" width="140" height="26" as="geometry" />
        </mxCell>
        <mxCell id="OecEfJYzLQX1Bd3YdA2C-46" value="Relation" style="endArrow=open;html=1;endSize=12;startArrow=diamondThin;startSize=14;startFill=0;edgeStyle=orthogonalEdgeStyle;rounded=0;entryX=1.014;entryY=0.068;entryDx=0;entryDy=0;exitX=0;exitY=0.5;exitDx=0;exitDy=0;entryPerimeter=0;" parent="1" source="OecEfJYzLQX1Bd3YdA2C-45" target="OecEfJYzLQX1Bd3YdA2C-10" edge="1">
          <mxGeometry relative="1" as="geometry">
            <mxPoint x="540" y="870" as="sourcePoint" />
            <mxPoint x="540" y="959" as="targetPoint" />
            <Array as="points">
              <mxPoint x="360" y="999" />
              <mxPoint x="360" y="716" />
            </Array>
          </mxGeometry>
        </mxCell>
        <mxCell id="OecEfJYzLQX1Bd3YdA2C-47" value="1" style="edgeLabel;resizable=0;html=1;align=left;verticalAlign=top;" parent="OecEfJYzLQX1Bd3YdA2C-46" connectable="0" vertex="1">
          <mxGeometry x="-1" relative="1" as="geometry" />
        </mxCell>
        <mxCell id="OecEfJYzLQX1Bd3YdA2C-48" value="1" style="edgeLabel;resizable=0;html=1;align=right;verticalAlign=top;" parent="OecEfJYzLQX1Bd3YdA2C-46" connectable="0" vertex="1">
          <mxGeometry x="1" relative="1" as="geometry" />
        </mxCell>
        <mxCell id="OecEfJYzLQX1Bd3YdA2C-49" value="Relation" style="endArrow=open;html=1;endSize=12;startArrow=diamondThin;startSize=14;startFill=0;edgeStyle=orthogonalEdgeStyle;rounded=0;entryX=1;entryY=0.5;entryDx=0;entryDy=0;exitX=0.021;exitY=0.085;exitDx=0;exitDy=0;exitPerimeter=0;" parent="1" source="OecEfJYzLQX1Bd3YdA2C-34" target="OecEfJYzLQX1Bd3YdA2C-44" edge="1">
          <mxGeometry relative="1" as="geometry">
            <mxPoint x="558" y="1087" as="sourcePoint" />
            <mxPoint x="460" y="950" as="targetPoint" />
            <Array as="points">
              <mxPoint x="640" y="711" />
              <mxPoint x="640" y="947" />
            </Array>
          </mxGeometry>
        </mxCell>
        <mxCell id="OecEfJYzLQX1Bd3YdA2C-50" value="1" style="edgeLabel;resizable=0;html=1;align=left;verticalAlign=top;" parent="OecEfJYzLQX1Bd3YdA2C-49" connectable="0" vertex="1">
          <mxGeometry x="-1" relative="1" as="geometry" />
        </mxCell>
        <mxCell id="OecEfJYzLQX1Bd3YdA2C-51" value="1" style="edgeLabel;resizable=0;html=1;align=right;verticalAlign=top;" parent="OecEfJYzLQX1Bd3YdA2C-49" connectable="0" vertex="1">
          <mxGeometry x="1" relative="1" as="geometry" />
        </mxCell>
        <mxCell id="OecEfJYzLQX1Bd3YdA2C-52" value="Relation" style="endArrow=open;html=1;endSize=12;startArrow=diamondThin;startSize=14;startFill=0;edgeStyle=orthogonalEdgeStyle;rounded=0;entryX=0;entryY=0.5;entryDx=0;entryDy=0;" parent="1" target="OecEfJYzLQX1Bd3YdA2C-38" edge="1">
          <mxGeometry relative="1" as="geometry">
            <mxPoint x="581" y="720" as="sourcePoint" />
            <mxPoint x="640" y="1036" as="targetPoint" />
            <Array as="points">
              <mxPoint x="620" y="720" />
              <mxPoint x="620" y="817" />
            </Array>
          </mxGeometry>
        </mxCell>
        <mxCell id="OecEfJYzLQX1Bd3YdA2C-53" value="1" style="edgeLabel;resizable=0;html=1;align=left;verticalAlign=top;" parent="OecEfJYzLQX1Bd3YdA2C-52" connectable="0" vertex="1">
          <mxGeometry x="-1" relative="1" as="geometry" />
        </mxCell>
        <mxCell id="OecEfJYzLQX1Bd3YdA2C-54" value="1" style="edgeLabel;resizable=0;html=1;align=right;verticalAlign=top;" parent="OecEfJYzLQX1Bd3YdA2C-52" connectable="0" vertex="1">
          <mxGeometry x="1" relative="1" as="geometry" />
        </mxCell>
        <mxCell id="OecEfJYzLQX1Bd3YdA2C-55" value="Country" style="swimlane;fontStyle=0;childLayout=stackLayout;horizontal=1;startSize=26;fillColor=#6a00ff;horizontalStack=0;resizeParent=1;resizeParentMax=0;resizeLast=0;collapsible=1;marginBottom=0;html=1;fontColor=#ffffff;strokeColor=#3700CC;" parent="1" vertex="1">
          <mxGeometry x="900" y="472" width="140" height="130" as="geometry" />
        </mxCell>
        <mxCell id="OecEfJYzLQX1Bd3YdA2C-56" value="name" style="text;strokeColor=none;fillColor=none;align=left;verticalAlign=top;spacingLeft=4;spacingRight=4;overflow=hidden;rotatable=0;points=[[0,0.5],[1,0.5]];portConstraint=eastwest;whiteSpace=wrap;html=1;" parent="OecEfJYzLQX1Bd3YdA2C-55" vertex="1">
          <mxGeometry y="26" width="140" height="26" as="geometry" />
        </mxCell>
        <mxCell id="OecEfJYzLQX1Bd3YdA2C-57" value="code" style="text;strokeColor=none;fillColor=none;align=left;verticalAlign=top;spacingLeft=4;spacingRight=4;overflow=hidden;rotatable=0;points=[[0,0.5],[1,0.5]];portConstraint=eastwest;whiteSpace=wrap;html=1;" parent="OecEfJYzLQX1Bd3YdA2C-55" vertex="1">
          <mxGeometry y="52" width="140" height="26" as="geometry" />
        </mxCell>
        <mxCell id="OecEfJYzLQX1Bd3YdA2C-58" value="code3" style="text;strokeColor=none;fillColor=none;align=left;verticalAlign=top;spacingLeft=4;spacingRight=4;overflow=hidden;rotatable=0;points=[[0,0.5],[1,0.5]];portConstraint=eastwest;whiteSpace=wrap;html=1;" parent="OecEfJYzLQX1Bd3YdA2C-55" vertex="1">
          <mxGeometry y="78" width="140" height="26" as="geometry" />
        </mxCell>
        <mxCell id="OecEfJYzLQX1Bd3YdA2C-59" value="timezones" style="text;strokeColor=none;fillColor=none;align=left;verticalAlign=top;spacingLeft=4;spacingRight=4;overflow=hidden;rotatable=0;points=[[0,0.5],[1,0.5]];portConstraint=eastwest;whiteSpace=wrap;html=1;" parent="OecEfJYzLQX1Bd3YdA2C-55" vertex="1">
          <mxGeometry y="104" width="140" height="26" as="geometry" />
        </mxCell>
        <mxCell id="OecEfJYzLQX1Bd3YdA2C-61" value="Timezone" style="swimlane;fontStyle=0;childLayout=stackLayout;horizontal=1;startSize=26;fillColor=#6a00ff;horizontalStack=0;resizeParent=1;resizeParentMax=0;resizeLast=0;collapsible=1;marginBottom=0;html=1;fontColor=#ffffff;strokeColor=#3700CC;" parent="1" vertex="1">
          <mxGeometry x="1171" y="485" width="140" height="104" as="geometry" />
        </mxCell>
        <mxCell id="OecEfJYzLQX1Bd3YdA2C-62" value="label" style="text;strokeColor=none;fillColor=none;align=left;verticalAlign=top;spacingLeft=4;spacingRight=4;overflow=hidden;rotatable=0;points=[[0,0.5],[1,0.5]];portConstraint=eastwest;whiteSpace=wrap;html=1;" parent="OecEfJYzLQX1Bd3YdA2C-61" vertex="1">
          <mxGeometry y="26" width="140" height="26" as="geometry" />
        </mxCell>
        <mxCell id="OecEfJYzLQX1Bd3YdA2C-63" value="offset" style="text;strokeColor=none;fillColor=none;align=left;verticalAlign=top;spacingLeft=4;spacingRight=4;overflow=hidden;rotatable=0;points=[[0,0.5],[1,0.5]];portConstraint=eastwest;whiteSpace=wrap;html=1;" parent="OecEfJYzLQX1Bd3YdA2C-61" vertex="1">
          <mxGeometry y="52" width="140" height="26" as="geometry" />
        </mxCell>
        <mxCell id="OecEfJYzLQX1Bd3YdA2C-64" value="name" style="text;strokeColor=none;fillColor=none;align=left;verticalAlign=top;spacingLeft=4;spacingRight=4;overflow=hidden;rotatable=0;points=[[0,0.5],[1,0.5]];portConstraint=eastwest;whiteSpace=wrap;html=1;" parent="OecEfJYzLQX1Bd3YdA2C-61" vertex="1">
          <mxGeometry y="78" width="140" height="26" as="geometry" />
        </mxCell>
        <mxCell id="OecEfJYzLQX1Bd3YdA2C-66" value="Relation" style="endArrow=open;html=1;endSize=12;startArrow=diamondThin;startSize=14;startFill=0;edgeStyle=orthogonalEdgeStyle;rounded=0;strokeColor=default;align=center;verticalAlign=middle;fontFamily=Helvetica;fontSize=11;fontColor=default;labelBackgroundColor=default;exitX=1;exitY=0.5;exitDx=0;exitDy=0;entryX=0.007;entryY=0.115;entryDx=0;entryDy=0;entryPerimeter=0;" parent="1" source="OecEfJYzLQX1Bd3YdA2C-59" target="OecEfJYzLQX1Bd3YdA2C-61" edge="1">
          <mxGeometry relative="1" as="geometry">
            <mxPoint x="1080" y="650" as="sourcePoint" />
            <mxPoint x="1180" y="793" as="targetPoint" />
            <Array as="points">
              <mxPoint x="1130" y="589" />
              <mxPoint x="1130" y="497" />
            </Array>
          </mxGeometry>
        </mxCell>
        <mxCell id="OecEfJYzLQX1Bd3YdA2C-67" value="0..n" style="edgeLabel;resizable=0;html=1;align=left;verticalAlign=top;fontFamily=Helvetica;fontSize=11;fontColor=default;labelBackgroundColor=default;" parent="OecEfJYzLQX1Bd3YdA2C-66" connectable="0" vertex="1">
          <mxGeometry x="-1" relative="1" as="geometry" />
        </mxCell>
        <mxCell id="OecEfJYzLQX1Bd3YdA2C-68" value="0..n" style="edgeLabel;resizable=0;html=1;align=right;verticalAlign=top;fontFamily=Helvetica;fontSize=11;fontColor=default;labelBackgroundColor=default;" parent="OecEfJYzLQX1Bd3YdA2C-66" connectable="0" vertex="1">
          <mxGeometry x="1" relative="1" as="geometry" />
        </mxCell>
        <mxCell id="OecEfJYzLQX1Bd3YdA2C-72" value="Relation" style="endArrow=open;html=1;endSize=12;startArrow=diamondThin;startSize=14;startFill=0;edgeStyle=orthogonalEdgeStyle;rounded=0;strokeColor=default;align=center;verticalAlign=middle;fontFamily=Helvetica;fontSize=11;fontColor=default;labelBackgroundColor=default;exitX=1;exitY=0.5;exitDx=0;exitDy=0;" parent="1" source="OecEfJYzLQX1Bd3YdA2C-37" target="OecEfJYzLQX1Bd3YdA2C-61" edge="1">
          <mxGeometry relative="1" as="geometry">
            <mxPoint x="1010" y="998" as="sourcePoint" />
            <mxPoint x="1070" y="720" as="targetPoint" />
            <Array as="points">
              <mxPoint x="1241" y="791" />
              <mxPoint x="1241" y="790" />
            </Array>
          </mxGeometry>
        </mxCell>
        <mxCell id="OecEfJYzLQX1Bd3YdA2C-73" value="0..1" style="edgeLabel;resizable=0;html=1;align=left;verticalAlign=top;fontFamily=Helvetica;fontSize=11;fontColor=default;labelBackgroundColor=default;" parent="OecEfJYzLQX1Bd3YdA2C-72" connectable="0" vertex="1">
          <mxGeometry x="-1" relative="1" as="geometry" />
        </mxCell>
        <mxCell id="OecEfJYzLQX1Bd3YdA2C-74" value="1" style="edgeLabel;resizable=0;html=1;align=right;verticalAlign=top;fontFamily=Helvetica;fontSize=11;fontColor=default;labelBackgroundColor=default;" parent="OecEfJYzLQX1Bd3YdA2C-72" connectable="0" vertex="1">
          <mxGeometry x="1" relative="1" as="geometry" />
        </mxCell>
        <mxCell id="OecEfJYzLQX1Bd3YdA2C-75" value="EmployeeRole" style="swimlane;fontStyle=0;childLayout=stackLayout;horizontal=1;startSize=26;fillColor=#6a00ff;horizontalStack=0;resizeParent=1;resizeParentMax=0;resizeLast=0;collapsible=1;marginBottom=0;html=1;fontColor=#ffffff;strokeColor=#3700CC;" parent="1" vertex="1">
          <mxGeometry x="280" y="1126" width="140" height="52" as="geometry" />
        </mxCell>
        <mxCell id="OecEfJYzLQX1Bd3YdA2C-76" value="slug" style="text;strokeColor=none;fillColor=none;align=left;verticalAlign=top;spacingLeft=4;spacingRight=4;overflow=hidden;rotatable=0;points=[[0,0.5],[1,0.5]];portConstraint=eastwest;whiteSpace=wrap;html=1;" parent="OecEfJYzLQX1Bd3YdA2C-75" vertex="1">
          <mxGeometry y="26" width="140" height="26" as="geometry" />
        </mxCell>
        <mxCell id="OecEfJYzLQX1Bd3YdA2C-85" value="Relation" style="endArrow=open;html=1;endSize=12;startArrow=diamondThin;startSize=14;startFill=0;edgeStyle=orthogonalEdgeStyle;rounded=0;exitX=0;exitY=0.5;exitDx=0;exitDy=0;entryX=0.75;entryY=0;entryDx=0;entryDy=0;" parent="1" source="OecEfJYzLQX1Bd3YdA2C-81" target="OecEfJYzLQX1Bd3YdA2C-75" edge="1">
          <mxGeometry relative="1" as="geometry">
            <mxPoint x="400" y="906" as="sourcePoint" />
            <mxPoint x="400" y="610" as="targetPoint" />
            <Array as="points">
              <mxPoint x="385" y="1025" />
            </Array>
          </mxGeometry>
        </mxCell>
        <mxCell id="OecEfJYzLQX1Bd3YdA2C-86" value="1..n" style="edgeLabel;resizable=0;html=1;align=left;verticalAlign=top;" parent="OecEfJYzLQX1Bd3YdA2C-85" connectable="0" vertex="1">
          <mxGeometry x="-1" relative="1" as="geometry" />
        </mxCell>
        <mxCell id="OecEfJYzLQX1Bd3YdA2C-87" value="1" style="edgeLabel;resizable=0;html=1;align=right;verticalAlign=top;" parent="OecEfJYzLQX1Bd3YdA2C-85" connectable="0" vertex="1">
          <mxGeometry x="1" relative="1" as="geometry" />
        </mxCell>
        <mxCell id="OecEfJYzLQX1Bd3YdA2C-88" value="Branch" style="swimlane;fontStyle=0;childLayout=stackLayout;horizontal=1;startSize=26;fillColor=#fa6800;horizontalStack=0;resizeParent=1;resizeParentMax=0;resizeLast=0;collapsible=1;marginBottom=0;html=1;fontColor=#000000;strokeColor=#C73500;" parent="1" vertex="1">
          <mxGeometry x="700" y="918" width="140" height="104" as="geometry" />
        </mxCell>
        <mxCell id="OecEfJYzLQX1Bd3YdA2C-89" value="name" style="text;strokeColor=none;fillColor=none;align=left;verticalAlign=top;spacingLeft=4;spacingRight=4;overflow=hidden;rotatable=0;points=[[0,0.5],[1,0.5]];portConstraint=eastwest;whiteSpace=wrap;html=1;" parent="OecEfJYzLQX1Bd3YdA2C-88" vertex="1">
          <mxGeometry y="26" width="140" height="26" as="geometry" />
        </mxCell>
        <mxCell id="OecEfJYzLQX1Bd3YdA2C-92" value="address" style="text;strokeColor=none;fillColor=none;align=left;verticalAlign=top;spacingLeft=4;spacingRight=4;overflow=hidden;rotatable=0;points=[[0,0.5],[1,0.5]];portConstraint=eastwest;whiteSpace=wrap;html=1;" parent="OecEfJYzLQX1Bd3YdA2C-88" vertex="1">
          <mxGeometry y="52" width="140" height="26" as="geometry" />
        </mxCell>
        <mxCell id="OecEfJYzLQX1Bd3YdA2C-110" value="clinic" style="text;strokeColor=none;fillColor=none;align=left;verticalAlign=top;spacingLeft=4;spacingRight=4;overflow=hidden;rotatable=0;points=[[0,0.5],[1,0.5]];portConstraint=eastwest;whiteSpace=wrap;html=1;" parent="OecEfJYzLQX1Bd3YdA2C-88" vertex="1">
          <mxGeometry y="78" width="140" height="26" as="geometry" />
        </mxCell>
        <mxCell id="OecEfJYzLQX1Bd3YdA2C-93" value="BranchAddress" style="swimlane;fontStyle=0;childLayout=stackLayout;horizontal=1;startSize=26;fillColor=#fa6800;horizontalStack=0;resizeParent=1;resizeParentMax=0;resizeLast=0;collapsible=1;marginBottom=0;html=1;fontColor=#000000;strokeColor=#C73500;" parent="1" vertex="1">
          <mxGeometry x="990" y="970" width="140" height="52" as="geometry" />
        </mxCell>
        <mxCell id="OecEfJYzLQX1Bd3YdA2C-97" value="Relation" style="endArrow=open;html=1;endSize=12;startArrow=diamondThin;startSize=14;startFill=0;edgeStyle=orthogonalEdgeStyle;rounded=0;strokeColor=default;align=center;verticalAlign=middle;fontFamily=Helvetica;fontSize=11;fontColor=default;labelBackgroundColor=default;exitX=1;exitY=0.5;exitDx=0;exitDy=0;entryX=0.5;entryY=0;entryDx=0;entryDy=0;" parent="1" source="OecEfJYzLQX1Bd3YdA2C-104" target="OecEfJYzLQX1Bd3YdA2C-55" edge="1">
          <mxGeometry relative="1" as="geometry">
            <mxPoint x="1010" y="978" as="sourcePoint" />
            <mxPoint x="1070" y="700" as="targetPoint" />
            <Array as="points">
              <mxPoint x="850" y="479" />
              <mxPoint x="850" y="430" />
              <mxPoint x="970" y="430" />
            </Array>
          </mxGeometry>
        </mxCell>
        <mxCell id="OecEfJYzLQX1Bd3YdA2C-98" value="0..1" style="edgeLabel;resizable=0;html=1;align=left;verticalAlign=top;fontFamily=Helvetica;fontSize=11;fontColor=default;labelBackgroundColor=default;" parent="OecEfJYzLQX1Bd3YdA2C-97" connectable="0" vertex="1">
          <mxGeometry x="-1" relative="1" as="geometry" />
        </mxCell>
        <mxCell id="OecEfJYzLQX1Bd3YdA2C-99" value="1" style="edgeLabel;resizable=0;html=1;align=right;verticalAlign=top;fontFamily=Helvetica;fontSize=11;fontColor=default;labelBackgroundColor=default;" parent="OecEfJYzLQX1Bd3YdA2C-97" connectable="0" vertex="1">
          <mxGeometry x="1" relative="1" as="geometry" />
        </mxCell>
        <mxCell id="OecEfJYzLQX1Bd3YdA2C-103" value="BaseAddress" style="swimlane;fontStyle=0;childLayout=stackLayout;horizontal=1;startSize=26;fillColor=#60a917;horizontalStack=0;resizeParent=1;resizeParentMax=0;resizeLast=0;collapsible=1;marginBottom=0;html=1;fontColor=#ffffff;strokeColor=#2D7600;" parent="1" vertex="1">
          <mxGeometry x="670" y="440" width="140" height="104" as="geometry" />
        </mxCell>
        <mxCell id="OecEfJYzLQX1Bd3YdA2C-104" value="country" style="text;strokeColor=none;fillColor=none;align=left;verticalAlign=top;spacingLeft=4;spacingRight=4;overflow=hidden;rotatable=0;points=[[0,0.5],[1,0.5]];portConstraint=eastwest;whiteSpace=wrap;html=1;" parent="OecEfJYzLQX1Bd3YdA2C-103" vertex="1">
          <mxGeometry y="26" width="140" height="26" as="geometry" />
        </mxCell>
        <mxCell id="OecEfJYzLQX1Bd3YdA2C-105" value="city" style="text;strokeColor=none;fillColor=none;align=left;verticalAlign=top;spacingLeft=4;spacingRight=4;overflow=hidden;rotatable=0;points=[[0,0.5],[1,0.5]];portConstraint=eastwest;whiteSpace=wrap;html=1;" parent="OecEfJYzLQX1Bd3YdA2C-103" vertex="1">
          <mxGeometry y="52" width="140" height="26" as="geometry" />
        </mxCell>
        <mxCell id="OecEfJYzLQX1Bd3YdA2C-106" value="zip_code" style="text;strokeColor=none;fillColor=none;align=left;verticalAlign=top;spacingLeft=4;spacingRight=4;overflow=hidden;rotatable=0;points=[[0,0.5],[1,0.5]];portConstraint=eastwest;whiteSpace=wrap;html=1;" parent="OecEfJYzLQX1Bd3YdA2C-103" vertex="1">
          <mxGeometry y="78" width="140" height="26" as="geometry" />
        </mxCell>
        <mxCell id="OecEfJYzLQX1Bd3YdA2C-107" value="Relation" style="endArrow=open;html=1;endSize=12;startArrow=diamondThin;startSize=14;startFill=0;edgeStyle=orthogonalEdgeStyle;rounded=0;entryX=0;entryY=0.25;entryDx=0;entryDy=0;exitX=1;exitY=0.5;exitDx=0;exitDy=0;" parent="1" source="OecEfJYzLQX1Bd3YdA2C-92" target="OecEfJYzLQX1Bd3YdA2C-93" edge="1">
          <mxGeometry relative="1" as="geometry">
            <mxPoint x="990" y="996" as="sourcePoint" />
            <mxPoint x="990" y="1090" as="targetPoint" />
            <Array as="points">
              <mxPoint x="980" y="983" />
              <mxPoint x="980" y="983" />
            </Array>
          </mxGeometry>
        </mxCell>
        <mxCell id="OecEfJYzLQX1Bd3YdA2C-108" value="1" style="edgeLabel;resizable=0;html=1;align=left;verticalAlign=top;" parent="OecEfJYzLQX1Bd3YdA2C-107" connectable="0" vertex="1">
          <mxGeometry x="-1" relative="1" as="geometry" />
        </mxCell>
        <mxCell id="OecEfJYzLQX1Bd3YdA2C-109" value="1" style="edgeLabel;resizable=0;html=1;align=right;verticalAlign=top;" parent="OecEfJYzLQX1Bd3YdA2C-107" connectable="0" vertex="1">
          <mxGeometry x="1" relative="1" as="geometry" />
        </mxCell>
        <mxCell id="OecEfJYzLQX1Bd3YdA2C-111" value="Relation" style="endArrow=open;html=1;endSize=12;startArrow=diamondThin;startSize=14;startFill=0;edgeStyle=orthogonalEdgeStyle;rounded=0;" parent="1" source="OecEfJYzLQX1Bd3YdA2C-88" target="OecEfJYzLQX1Bd3YdA2C-34" edge="1">
          <mxGeometry relative="1" as="geometry">
            <mxPoint x="970" y="1030" as="sourcePoint" />
            <mxPoint x="1130" y="1030" as="targetPoint" />
            <Array as="points" />
          </mxGeometry>
        </mxCell>
        <mxCell id="OecEfJYzLQX1Bd3YdA2C-112" value="1" style="edgeLabel;resizable=0;html=1;align=left;verticalAlign=top;" parent="OecEfJYzLQX1Bd3YdA2C-111" connectable="0" vertex="1">
          <mxGeometry x="-1" relative="1" as="geometry" />
        </mxCell>
        <mxCell id="OecEfJYzLQX1Bd3YdA2C-113" value="0..n" style="edgeLabel;resizable=0;html=1;align=right;verticalAlign=top;" parent="OecEfJYzLQX1Bd3YdA2C-111" connectable="0" vertex="1">
          <mxGeometry x="1" relative="1" as="geometry" />
        </mxCell>
        <mxCell id="OecEfJYzLQX1Bd3YdA2C-114" value="BranchSchedule" style="swimlane;fontStyle=0;childLayout=stackLayout;horizontal=1;startSize=26;fillColor=#fa6800;horizontalStack=0;resizeParent=1;resizeParentMax=0;resizeLast=0;collapsible=1;marginBottom=0;html=1;fontColor=#000000;strokeColor=#C73500;" parent="1" vertex="1">
          <mxGeometry x="740" y="1100" width="140" height="104" as="geometry" />
        </mxCell>
        <mxCell id="OecEfJYzLQX1Bd3YdA2C-115" value="branch" style="text;strokeColor=none;fillColor=none;align=left;verticalAlign=top;spacingLeft=4;spacingRight=4;overflow=hidden;rotatable=0;points=[[0,0.5],[1,0.5]];portConstraint=eastwest;whiteSpace=wrap;html=1;" parent="OecEfJYzLQX1Bd3YdA2C-114" vertex="1">
          <mxGeometry y="26" width="140" height="26" as="geometry" />
        </mxCell>
        <mxCell id="OecEfJYzLQX1Bd3YdA2C-116" value="start_date" style="text;strokeColor=none;fillColor=none;align=left;verticalAlign=top;spacingLeft=4;spacingRight=4;overflow=hidden;rotatable=0;points=[[0,0.5],[1,0.5]];portConstraint=eastwest;whiteSpace=wrap;html=1;" parent="OecEfJYzLQX1Bd3YdA2C-114" vertex="1">
          <mxGeometry y="52" width="140" height="26" as="geometry" />
        </mxCell>
        <mxCell id="OecEfJYzLQX1Bd3YdA2C-117" value="end_date" style="text;strokeColor=none;fillColor=none;align=left;verticalAlign=top;spacingLeft=4;spacingRight=4;overflow=hidden;rotatable=0;points=[[0,0.5],[1,0.5]];portConstraint=eastwest;whiteSpace=wrap;html=1;" parent="OecEfJYzLQX1Bd3YdA2C-114" vertex="1">
          <mxGeometry y="78" width="140" height="26" as="geometry" />
        </mxCell>
        <mxCell id="OecEfJYzLQX1Bd3YdA2C-118" value="Relation" style="endArrow=open;html=1;endSize=12;startArrow=diamondThin;startSize=14;startFill=0;edgeStyle=orthogonalEdgeStyle;rounded=0;exitX=0.5;exitY=0;exitDx=0;exitDy=0;" parent="1" source="OecEfJYzLQX1Bd3YdA2C-114" target="OecEfJYzLQX1Bd3YdA2C-88" edge="1">
          <mxGeometry relative="1" as="geometry">
            <mxPoint x="930" y="1228" as="sourcePoint" />
            <mxPoint x="830" y="1050" as="targetPoint" />
            <Array as="points">
              <mxPoint x="810" y="1060" />
              <mxPoint x="770" y="1060" />
            </Array>
          </mxGeometry>
        </mxCell>
        <mxCell id="OecEfJYzLQX1Bd3YdA2C-119" value="1" style="edgeLabel;resizable=0;html=1;align=left;verticalAlign=top;" parent="OecEfJYzLQX1Bd3YdA2C-118" connectable="0" vertex="1">
          <mxGeometry x="-1" relative="1" as="geometry" />
        </mxCell>
        <mxCell id="OecEfJYzLQX1Bd3YdA2C-120" value="0..n" style="edgeLabel;resizable=0;html=1;align=right;verticalAlign=top;" parent="OecEfJYzLQX1Bd3YdA2C-118" connectable="0" vertex="1">
          <mxGeometry x="1" relative="1" as="geometry" />
        </mxCell>
        <mxCell id="OecEfJYzLQX1Bd3YdA2C-121" value="BranchScheduleItem" style="swimlane;fontStyle=0;childLayout=stackLayout;horizontal=1;startSize=26;fillColor=#fa6800;horizontalStack=0;resizeParent=1;resizeParentMax=0;resizeLast=0;collapsible=1;marginBottom=0;html=1;fontColor=#000000;strokeColor=#C73500;" parent="1" vertex="1">
          <mxGeometry x="827" y="1240" width="140" height="156" as="geometry" />
        </mxCell>
        <mxCell id="OecEfJYzLQX1Bd3YdA2C-122" value="schedule" style="text;strokeColor=none;fillColor=none;align=left;verticalAlign=top;spacingLeft=4;spacingRight=4;overflow=hidden;rotatable=0;points=[[0,0.5],[1,0.5]];portConstraint=eastwest;whiteSpace=wrap;html=1;" parent="OecEfJYzLQX1Bd3YdA2C-121" vertex="1">
          <mxGeometry y="26" width="140" height="26" as="geometry" />
        </mxCell>
        <mxCell id="OecEfJYzLQX1Bd3YdA2C-123" value="day_iso" style="text;strokeColor=none;fillColor=none;align=left;verticalAlign=top;spacingLeft=4;spacingRight=4;overflow=hidden;rotatable=0;points=[[0,0.5],[1,0.5]];portConstraint=eastwest;whiteSpace=wrap;html=1;" parent="OecEfJYzLQX1Bd3YdA2C-121" vertex="1">
          <mxGeometry y="52" width="140" height="26" as="geometry" />
        </mxCell>
        <mxCell id="OecEfJYzLQX1Bd3YdA2C-124" value="day_name" style="text;strokeColor=none;fillColor=none;align=left;verticalAlign=top;spacingLeft=4;spacingRight=4;overflow=hidden;rotatable=0;points=[[0,0.5],[1,0.5]];portConstraint=eastwest;whiteSpace=wrap;html=1;" parent="OecEfJYzLQX1Bd3YdA2C-121" vertex="1">
          <mxGeometry y="78" width="140" height="26" as="geometry" />
        </mxCell>
        <mxCell id="OecEfJYzLQX1Bd3YdA2C-125" value="start_time" style="text;strokeColor=none;fillColor=none;align=left;verticalAlign=top;spacingLeft=4;spacingRight=4;overflow=hidden;rotatable=0;points=[[0,0.5],[1,0.5]];portConstraint=eastwest;whiteSpace=wrap;html=1;" parent="OecEfJYzLQX1Bd3YdA2C-121" vertex="1">
          <mxGeometry y="104" width="140" height="26" as="geometry" />
        </mxCell>
        <mxCell id="OecEfJYzLQX1Bd3YdA2C-126" value="end_time" style="text;strokeColor=none;fillColor=none;align=left;verticalAlign=top;spacingLeft=4;spacingRight=4;overflow=hidden;rotatable=0;points=[[0,0.5],[1,0.5]];portConstraint=eastwest;whiteSpace=wrap;html=1;" parent="OecEfJYzLQX1Bd3YdA2C-121" vertex="1">
          <mxGeometry y="130" width="140" height="26" as="geometry" />
        </mxCell>
        <mxCell id="OecEfJYzLQX1Bd3YdA2C-127" value="Relation" style="endArrow=open;html=1;endSize=12;startArrow=diamondThin;startSize=14;startFill=0;edgeStyle=orthogonalEdgeStyle;rounded=0;exitX=0;exitY=0.5;exitDx=0;exitDy=0;" parent="1" source="OecEfJYzLQX1Bd3YdA2C-122" target="OecEfJYzLQX1Bd3YdA2C-114" edge="1">
          <mxGeometry relative="1" as="geometry">
            <mxPoint x="740" y="1367" as="sourcePoint" />
            <mxPoint x="770" y="1250" as="targetPoint" />
            <Array as="points">
              <mxPoint x="770" y="1279" />
            </Array>
          </mxGeometry>
        </mxCell>
        <mxCell id="OecEfJYzLQX1Bd3YdA2C-128" value="1" style="edgeLabel;resizable=0;html=1;align=left;verticalAlign=top;" parent="OecEfJYzLQX1Bd3YdA2C-127" connectable="0" vertex="1">
          <mxGeometry x="-1" relative="1" as="geometry" />
        </mxCell>
        <mxCell id="OecEfJYzLQX1Bd3YdA2C-129" value="0..n" style="edgeLabel;resizable=0;html=1;align=right;verticalAlign=top;" parent="OecEfJYzLQX1Bd3YdA2C-127" connectable="0" vertex="1">
          <mxGeometry x="1" relative="1" as="geometry" />
        </mxCell>
        <mxCell id="Mj6mIItFze49XFK4zkgr-1" value="EmployeeSchedule" style="swimlane;fontStyle=0;childLayout=stackLayout;horizontal=1;startSize=26;fillColor=#fa6800;horizontalStack=0;resizeParent=1;resizeParentMax=0;resizeLast=0;collapsible=1;marginBottom=0;html=1;fontColor=#000000;strokeColor=#C73500;" vertex="1" parent="1">
          <mxGeometry x="520" y="1204" width="140" height="104" as="geometry" />
        </mxCell>
        <mxCell id="Mj6mIItFze49XFK4zkgr-2" value="employee" style="text;strokeColor=none;fillColor=none;align=left;verticalAlign=top;spacingLeft=4;spacingRight=4;overflow=hidden;rotatable=0;points=[[0,0.5],[1,0.5]];portConstraint=eastwest;whiteSpace=wrap;html=1;" vertex="1" parent="Mj6mIItFze49XFK4zkgr-1">
          <mxGeometry y="26" width="140" height="26" as="geometry" />
        </mxCell>
        <mxCell id="Mj6mIItFze49XFK4zkgr-3" value="start_date" style="text;strokeColor=none;fillColor=none;align=left;verticalAlign=top;spacingLeft=4;spacingRight=4;overflow=hidden;rotatable=0;points=[[0,0.5],[1,0.5]];portConstraint=eastwest;whiteSpace=wrap;html=1;" vertex="1" parent="Mj6mIItFze49XFK4zkgr-1">
          <mxGeometry y="52" width="140" height="26" as="geometry" />
        </mxCell>
        <mxCell id="Mj6mIItFze49XFK4zkgr-4" value="end_date" style="text;strokeColor=none;fillColor=none;align=left;verticalAlign=top;spacingLeft=4;spacingRight=4;overflow=hidden;rotatable=0;points=[[0,0.5],[1,0.5]];portConstraint=eastwest;whiteSpace=wrap;html=1;" vertex="1" parent="Mj6mIItFze49XFK4zkgr-1">
          <mxGeometry y="78" width="140" height="26" as="geometry" />
        </mxCell>
        <mxCell id="Mj6mIItFze49XFK4zkgr-5" value="EmployeeScheduleItem" style="swimlane;fontStyle=0;childLayout=stackLayout;horizontal=1;startSize=26;fillColor=#fa6800;horizontalStack=0;resizeParent=1;resizeParentMax=0;resizeLast=0;collapsible=1;marginBottom=0;html=1;fontColor=#000000;strokeColor=#C73500;" vertex="1" parent="1">
          <mxGeometry x="510" y="1380" width="140" height="182" as="geometry" />
        </mxCell>
        <mxCell id="Mj6mIItFze49XFK4zkgr-6" value="schedule" style="text;strokeColor=none;fillColor=none;align=left;verticalAlign=top;spacingLeft=4;spacingRight=4;overflow=hidden;rotatable=0;points=[[0,0.5],[1,0.5]];portConstraint=eastwest;whiteSpace=wrap;html=1;" vertex="1" parent="Mj6mIItFze49XFK4zkgr-5">
          <mxGeometry y="26" width="140" height="26" as="geometry" />
        </mxCell>
        <mxCell id="Mj6mIItFze49XFK4zkgr-11" value="branch" style="text;strokeColor=none;fillColor=none;align=left;verticalAlign=top;spacingLeft=4;spacingRight=4;overflow=hidden;rotatable=0;points=[[0,0.5],[1,0.5]];portConstraint=eastwest;whiteSpace=wrap;html=1;" vertex="1" parent="Mj6mIItFze49XFK4zkgr-5">
          <mxGeometry y="52" width="140" height="26" as="geometry" />
        </mxCell>
        <mxCell id="Mj6mIItFze49XFK4zkgr-7" value="day_iso" style="text;strokeColor=none;fillColor=none;align=left;verticalAlign=top;spacingLeft=4;spacingRight=4;overflow=hidden;rotatable=0;points=[[0,0.5],[1,0.5]];portConstraint=eastwest;whiteSpace=wrap;html=1;" vertex="1" parent="Mj6mIItFze49XFK4zkgr-5">
          <mxGeometry y="78" width="140" height="26" as="geometry" />
        </mxCell>
        <mxCell id="Mj6mIItFze49XFK4zkgr-8" value="day_name" style="text;strokeColor=none;fillColor=none;align=left;verticalAlign=top;spacingLeft=4;spacingRight=4;overflow=hidden;rotatable=0;points=[[0,0.5],[1,0.5]];portConstraint=eastwest;whiteSpace=wrap;html=1;" vertex="1" parent="Mj6mIItFze49XFK4zkgr-5">
          <mxGeometry y="104" width="140" height="26" as="geometry" />
        </mxCell>
        <mxCell id="Mj6mIItFze49XFK4zkgr-9" value="start_time" style="text;strokeColor=none;fillColor=none;align=left;verticalAlign=top;spacingLeft=4;spacingRight=4;overflow=hidden;rotatable=0;points=[[0,0.5],[1,0.5]];portConstraint=eastwest;whiteSpace=wrap;html=1;" vertex="1" parent="Mj6mIItFze49XFK4zkgr-5">
          <mxGeometry y="130" width="140" height="26" as="geometry" />
        </mxCell>
        <mxCell id="Mj6mIItFze49XFK4zkgr-10" value="end_time" style="text;strokeColor=none;fillColor=none;align=left;verticalAlign=top;spacingLeft=4;spacingRight=4;overflow=hidden;rotatable=0;points=[[0,0.5],[1,0.5]];portConstraint=eastwest;whiteSpace=wrap;html=1;" vertex="1" parent="Mj6mIItFze49XFK4zkgr-5">
          <mxGeometry y="156" width="140" height="26" as="geometry" />
        </mxCell>
        <mxCell id="Mj6mIItFze49XFK4zkgr-12" value="Relation" style="endArrow=open;html=1;endSize=12;startArrow=diamondThin;startSize=14;startFill=0;edgeStyle=orthogonalEdgeStyle;rounded=0;entryX=0.157;entryY=1.038;entryDx=0;entryDy=0;entryPerimeter=0;exitX=1;exitY=0.5;exitDx=0;exitDy=0;" edge="1" parent="1" source="Mj6mIItFze49XFK4zkgr-11" target="OecEfJYzLQX1Bd3YdA2C-110">
          <mxGeometry relative="1" as="geometry">
            <mxPoint x="670" y="1275" as="sourcePoint" />
            <mxPoint x="450" y="1180" as="targetPoint" />
            <Array as="points">
              <mxPoint x="722" y="1445" />
            </Array>
          </mxGeometry>
        </mxCell>
        <mxCell id="Mj6mIItFze49XFK4zkgr-13" value="1" style="edgeLabel;resizable=0;html=1;align=left;verticalAlign=top;" connectable="0" vertex="1" parent="Mj6mIItFze49XFK4zkgr-12">
          <mxGeometry x="-1" relative="1" as="geometry" />
        </mxCell>
        <mxCell id="Mj6mIItFze49XFK4zkgr-14" value="0..n" style="edgeLabel;resizable=0;html=1;align=right;verticalAlign=top;" connectable="0" vertex="1" parent="Mj6mIItFze49XFK4zkgr-12">
          <mxGeometry x="1" relative="1" as="geometry" />
        </mxCell>
        <mxCell id="Mj6mIItFze49XFK4zkgr-15" value="Relation" style="endArrow=open;html=1;endSize=12;startArrow=diamondThin;startSize=14;startFill=0;edgeStyle=orthogonalEdgeStyle;rounded=0;exitX=0.5;exitY=0;exitDx=0;exitDy=0;entryX=0.136;entryY=0.923;entryDx=0;entryDy=0;entryPerimeter=0;" edge="1" parent="1" source="Mj6mIItFze49XFK4zkgr-5" target="Mj6mIItFze49XFK4zkgr-4">
          <mxGeometry relative="1" as="geometry">
            <mxPoint x="487" y="1265" as="sourcePoint" />
            <mxPoint x="430" y="1190" as="targetPoint" />
            <Array as="points">
              <mxPoint x="580" y="1340" />
              <mxPoint x="539" y="1340" />
            </Array>
          </mxGeometry>
        </mxCell>
        <mxCell id="Mj6mIItFze49XFK4zkgr-16" value="1" style="edgeLabel;resizable=0;html=1;align=left;verticalAlign=top;" connectable="0" vertex="1" parent="Mj6mIItFze49XFK4zkgr-15">
          <mxGeometry x="-1" relative="1" as="geometry" />
        </mxCell>
        <mxCell id="Mj6mIItFze49XFK4zkgr-17" value="0..n" style="edgeLabel;resizable=0;html=1;align=right;verticalAlign=top;" connectable="0" vertex="1" parent="Mj6mIItFze49XFK4zkgr-15">
          <mxGeometry x="1" relative="1" as="geometry" />
        </mxCell>
        <mxCell id="Mj6mIItFze49XFK4zkgr-18" value="Relation" style="endArrow=open;html=1;endSize=12;startArrow=diamondThin;startSize=14;startFill=0;edgeStyle=orthogonalEdgeStyle;rounded=0;exitX=0.5;exitY=0;exitDx=0;exitDy=0;" edge="1" parent="1" source="Mj6mIItFze49XFK4zkgr-1" target="OecEfJYzLQX1Bd3YdA2C-40">
          <mxGeometry relative="1" as="geometry">
            <mxPoint x="631" y="1035" as="sourcePoint" />
            <mxPoint x="590" y="918" as="targetPoint" />
            <Array as="points" />
          </mxGeometry>
        </mxCell>
        <mxCell id="Mj6mIItFze49XFK4zkgr-19" value="1" style="edgeLabel;resizable=0;html=1;align=left;verticalAlign=top;" connectable="0" vertex="1" parent="Mj6mIItFze49XFK4zkgr-18">
          <mxGeometry x="-1" relative="1" as="geometry" />
        </mxCell>
        <mxCell id="Mj6mIItFze49XFK4zkgr-20" value="0..n" style="edgeLabel;resizable=0;html=1;align=right;verticalAlign=top;" connectable="0" vertex="1" parent="Mj6mIItFze49XFK4zkgr-18">
          <mxGeometry x="1" relative="1" as="geometry" />
        </mxCell>
        <mxCell id="Mj6mIItFze49XFK4zkgr-21" value="ClinicAddress" style="swimlane;fontStyle=0;childLayout=stackLayout;horizontal=1;startSize=26;fillColor=#fa6800;horizontalStack=0;resizeParent=1;resizeParentMax=0;resizeLast=0;collapsible=1;marginBottom=0;html=1;fontColor=#000000;strokeColor=#C73500;" vertex="1" parent="1">
          <mxGeometry x="990" y="840" width="140" height="52" as="geometry" />
        </mxCell>
        <mxCell id="Mj6mIItFze49XFK4zkgr-22" value="Relation" style="endArrow=open;html=1;endSize=12;startArrow=diamondThin;startSize=14;startFill=0;edgeStyle=orthogonalEdgeStyle;rounded=0;entryX=0.5;entryY=0;entryDx=0;entryDy=0;" edge="1" parent="1" source="OecEfJYzLQX1Bd3YdA2C-36" target="Mj6mIItFze49XFK4zkgr-21">
          <mxGeometry relative="1" as="geometry">
            <mxPoint x="895" y="760" as="sourcePoint" />
            <mxPoint x="1045" y="760" as="targetPoint" />
            <Array as="points" />
          </mxGeometry>
        </mxCell>
        <mxCell id="Mj6mIItFze49XFK4zkgr-23" value="1" style="edgeLabel;resizable=0;html=1;align=left;verticalAlign=top;" connectable="0" vertex="1" parent="Mj6mIItFze49XFK4zkgr-22">
          <mxGeometry x="-1" relative="1" as="geometry" />
        </mxCell>
        <mxCell id="Mj6mIItFze49XFK4zkgr-24" value="1" style="edgeLabel;resizable=0;html=1;align=right;verticalAlign=top;" connectable="0" vertex="1" parent="Mj6mIItFze49XFK4zkgr-22">
          <mxGeometry x="1" relative="1" as="geometry" />
        </mxCell>
        <mxCell id="Mj6mIItFze49XFK4zkgr-26" value="Relation" style="endArrow=open;html=1;endSize=12;startArrow=diamondThin;startSize=14;startFill=0;edgeStyle=orthogonalEdgeStyle;rounded=0;exitX=1;exitY=0.5;exitDx=0;exitDy=0;" edge="1" parent="1" source="Mj6mIItFze49XFK4zkgr-25" target="OecEfJYzLQX1Bd3YdA2C-88">
          <mxGeometry relative="1" as="geometry">
            <mxPoint x="670" y="931" as="sourcePoint" />
            <mxPoint x="625" y="1178" as="targetPoint" />
            <Array as="points">
              <mxPoint x="630" y="1051" />
              <mxPoint x="630" y="970" />
            </Array>
          </mxGeometry>
        </mxCell>
        <mxCell id="Mj6mIItFze49XFK4zkgr-27" value="1..n" style="edgeLabel;resizable=0;html=1;align=left;verticalAlign=top;" connectable="0" vertex="1" parent="Mj6mIItFze49XFK4zkgr-26">
          <mxGeometry x="-1" relative="1" as="geometry" />
        </mxCell>
        <mxCell id="Mj6mIItFze49XFK4zkgr-28" value="1" style="edgeLabel;resizable=0;html=1;align=right;verticalAlign=top;" connectable="0" vertex="1" parent="Mj6mIItFze49XFK4zkgr-26">
          <mxGeometry x="1" relative="1" as="geometry" />
        </mxCell>
        <mxCell id="Mj6mIItFze49XFK4zkgr-30" value="EmployeeColor" style="swimlane;fontStyle=0;childLayout=stackLayout;horizontal=1;startSize=26;fillColor=#6a00ff;horizontalStack=0;resizeParent=1;resizeParentMax=0;resizeLast=0;collapsible=1;marginBottom=0;html=1;fontColor=#ffffff;strokeColor=#3700CC;" vertex="1" parent="1">
          <mxGeometry x="440" y="540" width="140" height="130" as="geometry" />
        </mxCell>
        <mxCell id="Mj6mIItFze49XFK4zkgr-31" value="name" style="text;strokeColor=none;fillColor=none;align=left;verticalAlign=top;spacingLeft=4;spacingRight=4;overflow=hidden;rotatable=0;points=[[0,0.5],[1,0.5]];portConstraint=eastwest;whiteSpace=wrap;html=1;" vertex="1" parent="Mj6mIItFze49XFK4zkgr-30">
          <mxGeometry y="26" width="140" height="26" as="geometry" />
        </mxCell>
        <mxCell id="Mj6mIItFze49XFK4zkgr-32" value="sideline" style="text;strokeColor=none;fillColor=none;align=left;verticalAlign=top;spacingLeft=4;spacingRight=4;overflow=hidden;rotatable=0;points=[[0,0.5],[1,0.5]];portConstraint=eastwest;whiteSpace=wrap;html=1;" vertex="1" parent="Mj6mIItFze49XFK4zkgr-30">
          <mxGeometry y="52" width="140" height="26" as="geometry" />
        </mxCell>
        <mxCell id="Mj6mIItFze49XFK4zkgr-34" value="background" style="text;strokeColor=none;fillColor=none;align=left;verticalAlign=top;spacingLeft=4;spacingRight=4;overflow=hidden;rotatable=0;points=[[0,0.5],[1,0.5]];portConstraint=eastwest;whiteSpace=wrap;html=1;" vertex="1" parent="Mj6mIItFze49XFK4zkgr-30">
          <mxGeometry y="78" width="140" height="26" as="geometry" />
        </mxCell>
        <mxCell id="Mj6mIItFze49XFK4zkgr-33" value="is_default" style="text;strokeColor=none;fillColor=none;align=left;verticalAlign=top;spacingLeft=4;spacingRight=4;overflow=hidden;rotatable=0;points=[[0,0.5],[1,0.5]];portConstraint=eastwest;whiteSpace=wrap;html=1;" vertex="1" parent="Mj6mIItFze49XFK4zkgr-30">
          <mxGeometry y="104" width="140" height="26" as="geometry" />
        </mxCell>
        <mxCell id="Mj6mIItFze49XFK4zkgr-36" value="Relation" style="endArrow=open;html=1;endSize=12;startArrow=diamondThin;startSize=14;startFill=0;edgeStyle=orthogonalEdgeStyle;rounded=0;exitX=0;exitY=0.5;exitDx=0;exitDy=0;" edge="1" parent="1" source="Mj6mIItFze49XFK4zkgr-29" target="Mj6mIItFze49XFK4zkgr-30">
          <mxGeometry relative="1" as="geometry">
            <mxPoint x="440" y="770" as="sourcePoint" />
            <mxPoint x="317" y="876" as="targetPoint" />
            <Array as="points">
              <mxPoint x="400" y="973" />
              <mxPoint x="400" y="605" />
            </Array>
          </mxGeometry>
        </mxCell>
        <mxCell id="Mj6mIItFze49XFK4zkgr-37" value="1" style="edgeLabel;resizable=0;html=1;align=left;verticalAlign=top;" connectable="0" vertex="1" parent="Mj6mIItFze49XFK4zkgr-36">
          <mxGeometry x="-1" relative="1" as="geometry" />
        </mxCell>
        <mxCell id="Mj6mIItFze49XFK4zkgr-38" value="0..n" style="edgeLabel;resizable=0;html=1;align=right;verticalAlign=top;" connectable="0" vertex="1" parent="Mj6mIItFze49XFK4zkgr-36">
          <mxGeometry x="1" relative="1" as="geometry" />
        </mxCell>
        <mxCell id="Mj6mIItFze49XFK4zkgr-45" value="Relation" style="endArrow=open;html=1;endSize=12;startArrow=diamondThin;startSize=14;startFill=0;edgeStyle=orthogonalEdgeStyle;rounded=0;strokeColor=default;align=center;verticalAlign=middle;fontFamily=Helvetica;fontSize=11;fontColor=default;labelBackgroundColor=default;exitX=1;exitY=0.5;exitDx=0;exitDy=0;" edge="1" parent="1" source="Mj6mIItFze49XFK4zkgr-44" target="OecEfJYzLQX1Bd3YdA2C-61">
          <mxGeometry relative="1" as="geometry">
            <mxPoint x="590" y="840" as="sourcePoint" />
            <mxPoint x="991" y="638" as="targetPoint" />
            <Array as="points">
              <mxPoint x="610" y="921" />
              <mxPoint x="610" y="640" />
              <mxPoint x="1241" y="640" />
            </Array>
          </mxGeometry>
        </mxCell>
        <mxCell id="Mj6mIItFze49XFK4zkgr-46" value="0..1" style="edgeLabel;resizable=0;html=1;align=left;verticalAlign=top;fontFamily=Helvetica;fontSize=11;fontColor=default;labelBackgroundColor=default;" connectable="0" vertex="1" parent="Mj6mIItFze49XFK4zkgr-45">
          <mxGeometry x="-1" relative="1" as="geometry" />
        </mxCell>
        <mxCell id="Mj6mIItFze49XFK4zkgr-47" value="1" style="edgeLabel;resizable=0;html=1;align=right;verticalAlign=top;fontFamily=Helvetica;fontSize=11;fontColor=default;labelBackgroundColor=default;" connectable="0" vertex="1" parent="Mj6mIItFze49XFK4zkgr-45">
          <mxGeometry x="1" relative="1" as="geometry" />
        </mxCell>
      </root>
    </mxGraphModel>
  </diagram>
</mxfile>
